<?xml version="1.0" encoding="UTF-8" standalone="no"?>
<!DOCTYPE svg  PUBLIC '-//W3C//DTD SVG 1.1//EN'  'http://www.w3.org/Graphics/SVG/1.1/DTD/svg11.dtd'>
<svg xmlns="http://www.w3.org/2000/svg">
<defs>
<font id="FrutigerNextPro-Bold" horiz-adv-x="588">
<font-face underline-position="-50" font-weight="700" descent="-200" panose-1="2 11 8 3 4 2 4 2 2 3" units-per-em="1000" unicode-range="U+0020-25CA" bbox="-166 -227 1326 891" x-height="502" underline-thickness="50" font-family="FrutigerNextPro" ascent="800" cap-height="667"/>
<missing-glyph horiz-adv-x="1000"/>
<glyph glyph-name=".notdef" horiz-adv-x="1000"/>
<glyph glyph-name=".null" horiz-adv-x="1000"/>
<glyph glyph-name=".null" horiz-adv-x="1000"/>
<glyph glyph-name="nonmarkingreturn" horiz-adv-x="333"/>
<glyph glyph-name="space" horiz-adv-x="294" unicode=" "/>
<glyph glyph-name="exclam" horiz-adv-x="292" unicode="!" d="M213 0h-133v120h133v-120zM201 192h-109l-23 475h155z"/>
<glyph glyph-name="quotedbl" horiz-adv-x="469" unicode='&quot;' d="M197 459h-100v208h100v-208zM373 459h-101v208h101v-208z"/>
<glyph glyph-name="numbersign" d="M226 395l-19 -122h156l19 122h-156zM167 0h-84l29 194h-76v79h87l19 122h-76v79h87l29 193h84l-29 -193h157l28 193h84l-28 -193h75v-79h-87l-19 -122h76v-79h-87l-28 -194h-84l28 194h-156z" unicode="#"/>
<glyph glyph-name="dollar" d="M331 -108h-83v97q-93 2 -174 29l6 114q74 -40 178 -40q53 0 90.5 22t37.5 71q0 23 -19 42.5t-38.5 30t-61.5 29.5l-68 31q-60 29 -95 67.5t-35 100.5q0 82 53 127.5t137 58.5v102h83v-97q81 -1 149 -21l-6 -110q-60 29 -144 29q-52 0 -92 -18.5t-40 -63.5q0 -21 19 -40 t35.5 -28t47.5 -22l72 -31q67 -29 105.5 -69t38.5 -111q0 -88 -54.5 -137t-141.5 -62v-101z" unicode="$"/>
<glyph glyph-name="percent" horiz-adv-x="980" unicode="%" d="M172 377q15 -45 60 -45q24 0 39 11.5t21.5 34.5t8.5 43t2 50q0 31 -2 52t-9 43t-22 33t-38 11t-38 -11.5t-21.5 -33t-9 -43t-2.5 -51.5q0 -61 11 -94zM688 101q15 -45 60 -45q24 0 39 11.5t21.5 34.5t8.5 43t2 50q0 31 -2 52t-9 43t-22 33t-38 11t-38 -11.5t-21.5 -33 t-9 -43t-2.5 -51.5q0 -61 11 -94zM149 282q-90 49 -90 189q0 88 41.5 147t131.5 59q47 0 81.5 -17t53.5 -47t28 -65.5t9 -76.5t-9 -76.5t-28 -65.5t-53.5 -47t-81.5 -17q-49 0 -83 17zM321 -24h-84l423 715h85zM665 6q-89 49 -89 189q0 88 41 147t131 59t131.5 -59 t41.5 -147t-41 -147t-132 -59q-49 0 -83 17z"/>
<glyph glyph-name="ampersand" horiz-adv-x="706" unicode="&amp;" d="M450 299h-107q-72 0 -115 -27t-43 -85q0 -104 158 -104q58 0 107 15v201zM582 299v-279q-40 -12 -113.5 -21.5t-125.5 -9.5q-298 0 -298 192q0 67 46 111.5t116 50.5q-67 8 -104.5 47.5t-37.5 97.5q0 90 77 139.5t200 49.5q103 0 186 -26l-5 -102q-81 36 -181 36 q-57 0 -100 -26.5t-43 -71.5q0 -54 36 -76.5t108 -22.5h107v61h132v-61h106v-89h-106z"/>
<glyph glyph-name="quotesingle" horiz-adv-x="294" unicode="&apos;" d="M197 459h-100v208h100v-208z"/>
<glyph glyph-name="parenleft" horiz-adv-x="297" unicode="(" d="M296 -128h-102q-146 233 -146 425q0 190 146 424h102q-127 -235 -127 -424q0 -196 127 -425z"/>
<glyph glyph-name="parenright" horiz-adv-x="297" unicode=")" d="M104 -128h-102q127 229 127 425q0 189 -127 424h102q145 -232 145 -424q0 -191 -145 -425z"/>
<glyph glyph-name="asterisk" horiz-adv-x="432" unicode="*" d="M154 310l-79 51l86 106l-124 32l27 92l119 -56l-14 132h96l-14 -132l118 56l26 -92l-122 -32l82 -106l-79 -51l-60 117z"/>
<glyph glyph-name="plus" d="M242 206h-208v102h208v206h105v-206h208v-102h-208v-206h-105v206z" unicode="+"/>
<glyph glyph-name="comma" horiz-adv-x="294" unicode="," d="M125 -128h-95l59 248h130z"/>
<glyph glyph-name="hyphen" horiz-adv-x="333" unicode="-" d="M293 258h-252v104h252v-104z"/>
<glyph glyph-name="period" horiz-adv-x="294" unicode="." d="M214 0h-134v120h134v-120z"/>
<glyph glyph-name="slash" horiz-adv-x="316" unicode="/" d="M81 0h-107l262 667h106z"/>
<glyph glyph-name="zero" d="M197 168q26 -82 97 -82q25 0 44.5 10t32 30t20.5 42t11.5 52.5t5 55.5t1.5 57q0 53 -3.5 90.5t-14.5 76.5t-35.5 59.5t-61.5 20.5t-61 -21t-35 -60t-14.5 -76.5t-3.5 -89.5q0 -111 17 -165zM169 18q-133 79 -133 315q0 54 7.5 101.5t26.5 93t48 78t74 52t102 19.5 q70 0 122.5 -29.5t81 -80t42 -109t13.5 -125.5q0 -68 -13 -126t-41.5 -109t-80.5 -80t-124 -29q-75 0 -125 29z" unicode="0"/>
<glyph glyph-name="one" d="M412 0h-142v523l-129 -99l-50 99l198 144h123v-667z" unicode="1"/>
<glyph glyph-name="two" d="M517 0h-470v107l224 205q94 86 94 156q0 51 -37.5 77.5t-90.5 26.5q-73 0 -166 -44l-5 108q114 41 197 41q104 0 175 -46.5t71 -145.5q0 -65 -35.5 -120.5t-115.5 -128.5l-146 -134h305v-102z" unicode="2"/>
<glyph glyph-name="three" d="M45 15l6 101q77 -30 175 -30q65 0 107.5 26t42.5 83q0 56 -46.5 80.5t-112.5 24.5h-85v91h72q163 0 163 101q0 88 -136 88q-84 0 -164 -31l-6 99q92 29 189 29q46 0 88.5 -8.5t83 -27t64.5 -54t24 -84.5q0 -61 -35.5 -99.5t-98.5 -54.5q64 -10 105.5 -52t41.5 -103 q0 -74 -44 -122t-104.5 -65.5t-135.5 -17.5q-111 0 -194 26z" unicode="3"/>
<glyph glyph-name="four" d="M336 141h-311v117l298 409h151v-424h96v-102h-96v-141h-138v141zM338 541l-209 -301h209v301z" unicode="4"/>
<glyph glyph-name="five" d="M62 15l6 105q67 -27 151 -27q72 0 116 29t44 94q0 113 -159 113q-66 0 -141 -22l7 360h408v-99h-279l-7 -160q31 8 81 8q104 0 170.5 -47t66.5 -151q0 -56 -24.5 -101t-65 -72.5t-90 -41.5t-103.5 -14q-104 0 -181 26z" unicode="5"/>
<glyph glyph-name="six" d="M516 661l-6 -102q-62 22 -132 22q-94 0 -144 -62.5t-52 -155.5q50 67 155 67q99 0 158.5 -56.5t59.5 -153.5q0 -106 -72 -168.5t-182 -62.5q-122 0 -190 81t-68 232q0 172 84 274t243 102q70 0 146 -17zM218 127q34 -42 87 -42q56 0 86 35.5t30 93.5q0 57 -30 91t-86 34 t-86.5 -31t-30.5 -86q0 -58 30 -95z" unicode="6"/>
<glyph glyph-name="seven" d="M277 0h-164l272 554h-335v113h477v-113z" unicode="7"/>
<glyph glyph-name="eight" d="M71 286q41 41 107 60q-126 45 -126 156q0 58 41 99.5t94 58.5t107 17q43 0 83.5 -9t78 -27.5t60 -54t22.5 -82.5q0 -110 -131 -158q149 -45 149 -173q0 -64 -43 -107.5t-99.5 -60t-119.5 -16.5q-47 0 -91 10t-83.5 31t-63.5 58t-24 85q0 73 39 113zM254 403q19 -9 41 -15 q45 14 75.5 41.5t30.5 69.5t-31.5 66.5t-75.5 24.5t-75.5 -25t-31.5 -66q0 -61 67 -96zM337 291q-16 8 -43 17q-52 -13 -86.5 -44t-34.5 -77q0 -50 34 -78t87 -28q54 0 88 28.5t34 78.5q0 68 -79 103z" unicode="8"/>
<glyph glyph-name="nine" d="M72 5l6 102q62 -22 132 -22q94 0 144 62.5t52 155.5q-50 -67 -155 -67q-98 0 -158 57.5t-60 155.5q0 105 72.5 166.5t181.5 61.5q122 0 190 -81t68 -232q0 -172 -84 -274t-243 -102q-70 0 -146 17zM196 362q29 -35 87 -35q56 0 86.5 31t30.5 86q0 56 -31.5 96.5 t-85.5 40.5q-56 0 -86 -35.5t-30 -93.5q0 -55 29 -90z" unicode="9"/>
<glyph glyph-name="colon" horiz-adv-x="294" unicode=":" d="M214 0h-134v120h134v-120zM214 382h-134v120h134v-120z"/>
<glyph glyph-name="semicolon" horiz-adv-x="294" unicode=";" d="M125 -128h-95l59 248h130zM213 382h-133v120h133v-120z"/>
<glyph glyph-name="less" d="M555 -3l-521 205v108l521 206v-108l-402 -152l402 -151v-108z" unicode="&lt;"/>
<glyph glyph-name="equal" d="M555 99h-521v101h521v-101zM555 312h-521v102h521v-102z" unicode="="/>
<glyph glyph-name="greater" d="M554 202l-521 -205v108l402 151l-402 152v108l521 -206v-108z" unicode="&gt;"/>
<glyph glyph-name="question" horiz-adv-x="452" unicode="?" d="M257 0h-134v120h134v-120zM249 192h-118v13q0 48 15 85t36.5 59.5t43 42t36.5 44.5t15 56q0 40 -31 60t-74 20q-61 0 -136 -28l-6 104q96 29 171 29q89 0 154 -41.5t65 -124.5q0 -41 -17.5 -74.5t-43 -57.5t-50.5 -47t-42.5 -55t-17.5 -70v-15z"/>
<glyph glyph-name="at" horiz-adv-x="1075" unicode="@" d="M852 -79l9 -94q-150 -54 -315 -54q-222 0 -354.5 120.5t-132.5 326.5q0 229 146.5 370t373.5 141q191 0 314 -106.5t123 -293.5q0 -148 -79 -245t-192 -97q-118 0 -131 115q-64 -115 -173 -115q-69 0 -111.5 46.5t-42.5 126.5q0 150 90 250t238 100q82 0 164 -25 l-66 -303q-5 -25 -5 -48q0 -65 57 -65q60 0 104 70t44 185q0 154 -95.5 235t-246.5 81q-176 0 -290.5 -116.5t-114.5 -304.5q0 -168 104 -263.5t287 -95.5q151 0 295 59zM616 250l36 166q-24 6 -51 6q-87 0 -142 -78t-55 -170q0 -46 19.5 -70.5t54.5 -24.5q48 0 85 48 t53 123z"/>
<glyph glyph-name="A" horiz-adv-x="699" unicode="A" d="M347 573l-113 -305h223zM144 0h-146l254 667h194l255 -667h-154l-59 167h-284z"/>
<glyph glyph-name="B" horiz-adv-x="626" unicode="B" d="M215 300v-209h70q39 0 69.5 8t54 32t23.5 63q0 106 -153 106h-64zM215 576v-191h71q132 0 132 99q0 48 -34.5 70t-85.5 22h-83zM317 0h-244v667h272q94 0 157 -38.5t63 -126.5q0 -125 -131 -156q67 -12 107.5 -52.5t40.5 -105.5q0 -46 -15.5 -80t-40 -54.5t-60 -33 t-71 -16.5t-78.5 -4z"/>
<glyph glyph-name="C" horiz-adv-x="603" unicode="C" d="M568 125l6 -108q-71 -28 -169 -28q-165 0 -265 91t-100 253q0 153 104.5 248.5t260.5 95.5q85 0 167 -24l-6 -111q-65 27 -138 27q-105 0 -169 -65.5t-64 -170.5q0 -108 61 -172t169 -64q80 0 143 28z"/>
<glyph glyph-name="D" horiz-adv-x="700" unicode="D" d="M289 0h-216v667h234q166 0 259.5 -81.5t93.5 -242.5q0 -166 -101 -254.5t-270 -88.5zM221 565v-463h47q117 0 177 62.5t60 178.5q0 105 -57.5 163.5t-162.5 58.5h-64z"/>
<glyph glyph-name="E" horiz-adv-x="558" unicode="E" d="M517 0h-444v667h435v-102h-290v-175h277v-101h-277v-187h299v-102z"/>
<glyph glyph-name="F" horiz-adv-x="532" unicode="F" d="M221 0h-148v667h427v-102h-279v-183h267v-101h-267v-281z"/>
<glyph glyph-name="G" horiz-adv-x="697" unicode="G" d="M501 274h-130v97h261v-344q-87 -38 -218 -38q-166 0 -270 90t-104 254q0 158 112.5 251t273.5 93q110 0 194 -30l-6 -112q-75 37 -168 37q-113 0 -182 -63.5t-69 -175.5q0 -108 58 -173.5t166 -65.5q49 0 82 10v170z"/>
<glyph glyph-name="H" horiz-adv-x="706" unicode="H" d="M221 0h-148v667h148v-266h265v266h148v-667h-148v282h-265v-282z"/>
<glyph glyph-name="I" horiz-adv-x="293" unicode="I" d="M221 0h-148v667h148v-667z"/>
<glyph glyph-name="J" horiz-adv-x="375" unicode="J" d="M5 5l5 109q23 -11 56 -11q49 0 72.5 29.5t23.5 78.5v456h148v-478q0 -94 -51 -147t-144 -53q-59 0 -110 16z"/>
<glyph glyph-name="K" horiz-adv-x="663" unicode="K" d="M221 0h-148v667h148v-288l241 288h175l-281 -312l305 -355h-185l-255 318v-318z"/>
<glyph glyph-name="L" horiz-adv-x="526" unicode="L" d="M508 0h-435v667h148v-549h287v-118z"/>
<glyph glyph-name="M" horiz-adv-x="935" unicode="M" d="M204 0h-131v667h221l175 -507l173 507h221v-667h-137v572l-196 -572h-130l-196 572v-572z"/>
<glyph glyph-name="N" horiz-adv-x="739" unicode="N" d="M204 0h-131v667h216l247 -546v546h131v-667h-217l-246 545v-545z"/>
<glyph glyph-name="O" horiz-adv-x="735" unicode="O" d="M232 172q48 -80 135 -80q47 0 82 21.5t54 58t28 76.5t9 85t-9 85t-28 76.5t-54 58t-82 21.5t-82 -22t-53.5 -58.5t-27.5 -76.5t-9 -84q0 -97 37 -161zM225 13q-90 37 -137.5 119.5t-47.5 200.5q0 156 86.5 250t240.5 94q157 0 242.5 -92.5t85.5 -251.5 q0 -157 -86.5 -250.5t-241.5 -93.5q-81 0 -142 24z"/>
<glyph glyph-name="P" horiz-adv-x="603" unicode="P" d="M218 0h-145v667h236q55 0 101.5 -11t84.5 -34.5t59.5 -64t21.5 -95.5q0 -109 -75.5 -162.5t-190.5 -53.5h-92v-246zM217 568v-222h52q34 0 59 4t49 15.5t37 35.5t13 60q0 107 -149 107h-61z"/>
<glyph glyph-name="Q" horiz-adv-x="732" unicode="Q" d="M232 172q48 -80 135 -80q47 0 82 21.5t54 58t28 76.5t9 85t-9 85t-28 76.5t-54 58t-82 21.5t-82 -22t-53.5 -58.5t-27.5 -76.5t-9 -84q0 -97 37 -161zM679 -128h-171l-107 119q-10 -2 -17 -2h-17q-158 0 -242.5 92.5t-84.5 251.5q0 156 86.5 250t240.5 94 q157 0 242.5 -92.5t85.5 -251.5q0 -107 -40.5 -187.5t-117.5 -118.5z"/>
<glyph glyph-name="R" horiz-adv-x="629" unicode="R" d="M218 0h-145v667h264q63 0 113 -15t86 -56t36 -104q0 -69 -42.5 -110t-111.5 -54q41 -9 64 -34t45 -79l85 -215h-160l-60 167q-24 65 -46 87t-74 22h-54v-276zM217 568v-193h67q59 0 99 24t40 78q0 53 -36 72t-99 19h-71z"/>
<glyph glyph-name="S" horiz-adv-x="551" unicode="S" d="M58 16l7 117q86 -38 168 -38q47 0 82 20.5t35 66.5q0 34 -26 56t-86 47l-54 23q-127 54 -127 171q0 54 24 95t63.5 62t81.5 31t86 10q101 0 157 -21l-5 -115q-68 29 -142 29q-47 0 -81.5 -18.5t-34.5 -61.5q0 -30 24.5 -49.5t71.5 -38.5l44 -18q76 -30 117 -72t41 -116 q0 -57 -23.5 -99t-63 -64.5t-83 -33t-90.5 -10.5q-99 0 -186 27z"/>
<glyph glyph-name="T" horiz-adv-x="587" unicode="T" d="M368 0h-149v549h-209v118h567v-118h-209v-549z"/>
<glyph glyph-name="U" horiz-adv-x="696" unicode="U" d="M214 667v-417q0 -68 33 -110.5t100 -42.5q68 0 102 42t34 110v418h148v-416q0 -126 -79.5 -194t-205.5 -68q-127 0 -203.5 65.5t-76.5 190.5v422h148z"/>
<glyph glyph-name="V" horiz-adv-x="661" unicode="V" d="M414 0h-171l-244 667h157l177 -524l180 524h150z"/>
<glyph glyph-name="W" horiz-adv-x="988" unicode="W" d="M352 0h-166l-179 667h143l129 -530l144 530h152l142 -530l130 530h135l-178 -667h-165l-145 531z"/>
<glyph glyph-name="X" horiz-adv-x="679" unicode="X" d="M164 0h-162l244 347l-218 320h169l153 -244l151 244h157l-222 -320l242 -347h-175l-168 270z"/>
<glyph glyph-name="Y" horiz-adv-x="629" unicode="Y" d="M387 0h-148v249l-246 418h162l164 -308l162 308h156l-250 -418v-249z"/>
<glyph glyph-name="Z" horiz-adv-x="562" unicode="Z" d="M536 0h-510v117l340 442h-328v108h489v-118l-334 -441h343v-108z"/>
<glyph glyph-name="bracketleft" horiz-adv-x="308" unicode="[" d="M299 -128h-222v849h222v-85h-108v-678h108v-86z"/>
<glyph glyph-name="backslash" horiz-adv-x="315" unicode="\" d="M342 0h-106l-262 667h107z"/>
<glyph glyph-name="bracketright" horiz-adv-x="308" unicode="]" d="M232 -128h-222v86h109v678h-109v85h222v-849z"/>
<glyph glyph-name="asciicircum" horiz-adv-x="600" unicode="^" d="M188 239h-112l176 428h97l176 -428h-112l-114 305z"/>
<glyph glyph-name="underscore" horiz-adv-x="500" unicode="_" d="M500 -125h-500v50h500v-50z"/>
<glyph glyph-name="grave" horiz-adv-x="263" unicode="`" d="M187 583h-98l-112 136h138z"/>
<glyph glyph-name="a" horiz-adv-x="548" unicode="a" d="M495 0h-130l-3 74q-54 -85 -164 -85q-72 0 -121 41t-49 113q0 169 269 169q22 0 60 -2v17q0 98 -119 98q-76 0 -147 -38l-6 92q82 33 173 33q232 0 232 -195v-199q0 -74 5 -118zM357 239h-28q-169 0 -169 -90q0 -36 20.5 -55t53.5 -19q60 0 91.5 41.5t31.5 101.5v21z"/>
<glyph glyph-name="b" horiz-adv-x="595" unicode="b" d="M219 143q29 -57 86 -57q108 0 108 167q0 162 -107 162q-41 0 -66.5 -27.5t-34 -61t-8.5 -73.5q0 -65 22 -110zM189 0h-126v721h138v-302q18 44 60 68.5t92 24.5q55 0 96.5 -21.5t65 -58.5t35 -82t11.5 -97q0 -72 -19.5 -129t-69 -96t-122.5 -39q-114 0 -159 93z"/>
<glyph glyph-name="c" horiz-adv-x="476" unicode="c" d="M443 106l5 -98q-57 -19 -138 -19q-124 0 -200 71t-76 193q0 119 79 189t201 70q72 0 133 -18l-6 -98q-45 22 -99 22q-75 0 -117.5 -45.5t-42.5 -119.5q0 -73 42 -120t117 -47q55 0 102 20z"/>
<glyph glyph-name="d" horiz-adv-x="595" unicode="d" d="M202 141q28 -56 88 -56q57 0 82.5 51t25.5 116q0 40 -8.5 74t-34 61.5t-66.5 27.5q-107 0 -107 -163q0 -70 20 -111zM537 0h-128l-5 82q-45 -93 -159 -93q-73 0 -122.5 39t-69 96t-19.5 129q0 111 52 185t158 74q50 0 91.5 -24.5t59.5 -68.5v302h138v-581q0 -85 4 -140z "/>
<glyph glyph-name="e" horiz-adv-x="535" unicode="e" d="M504 221h-335q2 -66 44 -103t121 -37q80 0 138 33l6 -96q-68 -29 -160 -29q-138 0 -211 69t-73 195q0 113 69.5 186t179.5 73q221 0 221 -258v-33zM169 299h211q0 56 -22 93t-74 37q-53 0 -83 -38.5t-32 -91.5z"/>
<glyph glyph-name="f" horiz-adv-x="364" unicode="f" d="M249 0h-139v410h-93v92h93v51q0 178 162 178q64 0 98 -12l-6 -88q-17 8 -49 8q-67 0 -67 -87v-50h108v-92h-107v-410z"/>
<glyph glyph-name="g" horiz-adv-x="595" unicode="g" d="M202 148q29 -52 87 -52q40 0 65.5 26t34.5 59t9 71q0 40 -8.5 74t-34 61.5t-66.5 27.5q-107 0 -107 -163q0 -65 20 -104zM75 -200l6 105q70 -37 153 -37q81 0 121 43t40 121v54q-55 -86 -157 -86t-153 73.5t-51 179.5q0 111 51 185t155 74q114 0 159 -93v83h134v-470 q0 -127 -70 -193t-199 -66q-102 0 -189 27z"/>
<glyph glyph-name="h" horiz-adv-x="585" unicode="h" d="M201 0h-138v721h138v-302q46 93 154 93q168 0 168 -186v-326h-138v294q0 55 -16.5 87t-67.5 32q-52 0 -76 -39.5t-24 -95.5v-278z"/>
<glyph glyph-name="i" horiz-adv-x="263" unicode="i" d="M201 0h-138v502h138v-502zM201 595h-138v111h138v-111z"/>
<glyph glyph-name="j" horiz-adv-x="268" unicode="j" d="M-34 -218l6 97q16 -6 36 -6q60 0 60 82v547h138v-561q0 -77 -34 -122.5t-109 -45.5q-57 0 -97 9zM206 595h-138v111h138v-111z"/>
<glyph glyph-name="k" horiz-adv-x="567" unicode="k" d="M201 0h-138v721h138v-425l182 206h161l-204 -224l224 -278h-168l-195 255v-255z"/>
<glyph glyph-name="l" horiz-adv-x="263" unicode="l" d="M201 0h-138v721h138v-721z"/>
<glyph glyph-name="m" horiz-adv-x="877" unicode="m" d="M201 0h-138v390q0 66 -5 112h130l2 -84q46 94 158 94q56 0 95 -27t54 -72q18 45 62 72t93 27q163 0 163 -187v-325h-138v313q0 100 -77 100q-48 0 -70.5 -39.5t-22.5 -95.5v-278h-137v313q0 100 -76 100q-48 0 -70.5 -39.5t-22.5 -95.5v-278z"/>
<glyph glyph-name="n" horiz-adv-x="585" unicode="n" d="M201 0h-138v390q0 66 -5 112h130l2 -84q48 94 163 94q170 0 170 -187v-325h-138v293q0 26 -3 44.5t-11 37.5t-25.5 28.5t-44.5 9.5q-54 0 -77 -39t-23 -97v-277z"/>
<glyph glyph-name="o" horiz-adv-x="593" unicode="o" d="M207 137q32 -54 90 -54q61 0 88 48.5t27 121.5q0 31 -5.5 58.5t-18 52.5t-36 39.5t-55.5 14.5q-60 0 -87.5 -49t-27.5 -116q0 -69 25 -116zM186 7q-74 29 -113 92t-39 154q0 121 72.5 190t190.5 69q123 0 193 -67.5t70 -191.5q0 -122 -70 -193t-193 -71q-61 0 -111 18z "/>
<glyph glyph-name="p" horiz-adv-x="595" unicode="p" d="M219 143q29 -57 86 -57q108 0 108 167q0 162 -107 162q-41 0 -66.5 -27.5t-34 -61t-8.5 -73.5q0 -65 22 -110zM201 -216h-138v572q0 74 -5 146h131l3 -85q20 45 64.5 70t96.5 25q55 0 96.5 -21.5t65 -58.5t35 -82t11.5 -97q0 -72 -19.5 -129t-69 -96t-122.5 -39 q-50 0 -90.5 24t-58.5 68v-297z"/>
<glyph glyph-name="q" horiz-adv-x="595" unicode="q" d="M202 143q28 -57 88 -57q57 0 82.5 51.5t25.5 116.5q0 40 -8.5 73.5t-34 61t-66.5 27.5q-107 0 -107 -162q0 -70 20 -111zM533 -216h-138v298q-18 -44 -59.5 -68.5t-90.5 -24.5q-73 0 -122.5 39t-69 96t-19.5 129q0 71 20 127t68.5 94t119.5 38q114 0 161 -93l1 83h129 v-718z"/>
<glyph glyph-name="r" horiz-adv-x="385" unicode="r" d="M201 0h-138v390q0 65 -5 111h130l3 -97q20 46 56.5 77.5t84.5 31.5q24 0 40 -5l-4 -124q-18 7 -43 7q-63 0 -93.5 -49.5t-30.5 -117.5v-224z"/>
<glyph glyph-name="s" horiz-adv-x="446" unicode="s" d="M44 13l6 105q65 -34 138 -34q87 0 87 58q0 23 -24 39.5t-58.5 28.5t-69 27t-58.5 46.5t-24 76.5q0 53 33.5 89t78.5 50t95 14q71 0 138 -19l-6 -100q-60 24 -124 24q-82 0 -82 -51q0 -21 24 -35t58 -25t68 -26t58 -48t24 -81q0 -57 -32.5 -95.5t-77.5 -53t-100 -14.5 q-84 0 -152 24z"/>
<glyph glyph-name="t" horiz-adv-x="379" unicode="t" d="M355 100l4 -92q-57 -19 -115 -19q-81 0 -111.5 45.5t-30.5 132.5v244h-90v91h90v102l138 45v-147h112v-91h-112v-246q0 -76 60 -76q27 0 55 11z"/>
<glyph glyph-name="u" horiz-adv-x="582" unicode="u" d="M525 0h-130l-3 84q-49 -95 -162 -95q-169 0 -169 189v324h138v-293q0 -26 2.5 -44.5t10.5 -37.5t25.5 -28.5t44.5 -9.5q54 0 77 39.5t23 97.5v276h138v-389q0 -67 5 -113z"/>
<glyph glyph-name="v" horiz-adv-x="506" unicode="v" d="M339 0h-173l-160 502h145l106 -398l105 398h138z"/>
<glyph glyph-name="w" horiz-adv-x="848" unicode="w" d="M323 0h-171l-143 502h139l100 -395l100 395h164l103 -395l97 395h128l-141 -502h-171l-101 398z"/>
<glyph glyph-name="x" horiz-adv-x="532" unicode="x" d="M152 0h-144l170 263l-153 239h150l98 -179l93 179h143l-151 -239l168 -263h-152l-109 198z"/>
<glyph glyph-name="y" horiz-adv-x="503" unicode="y" d="M30 -215l6 95q27 -10 54 -10q62 0 86 71l13 41l-183 520h146l106 -383l105 383h136l-186 -559q-30 -86 -72 -128t-114 -42q-37 0 -97 12z"/>
<glyph glyph-name="z" horiz-adv-x="487" unicode="z" d="M457 0h-427v106l268 304h-259v92h416v-105l-267 -305h269v-92z"/>
<glyph glyph-name="braceleft" horiz-adv-x="311" unicode="{" d="M301 -128h-90q-50 0 -81.5 38.5t-31.5 88.5v163q0 39 -18 68.5t-55 29.5v74q37 0 55 30t18 70v161q0 50 32 88t82 38h89v-71h-36q-54 0 -54 -75v-159q0 -43 -24.5 -75.5t-68.5 -43.5q44 -11 68.5 -43t24.5 -77v-157q0 -77 54 -77h36v-71z"/>
<glyph glyph-name="bar" horiz-adv-x="214" unicode="|" d="M161 -216h-107v991h107v-991z"/>
<glyph glyph-name="braceright" horiz-adv-x="311" unicode="}" d="M101 -128h-90v71h36q54 0 54 77v157q0 45 24.5 77t68.5 43q-44 11 -68.5 43.5t-24.5 75.5v159q0 75 -54 75h-36v71h89q50 0 82 -38t32 -88v-161q0 -40 18 -70t55 -30v-74q-37 0 -55 -29.5t-18 -68.5v-163q0 -50 -31.5 -88.5t-81.5 -38.5z"/>
<glyph glyph-name="asciitilde" d="M92 171h-69q4 66 40 118.5t97 52.5q45 0 138 -33.5t132 -33.5q54 0 67 69h69q-4 -67 -38.5 -119.5t-96.5 -52.5q-46 0 -139 33.5t-132 33.5q-29 0 -46.5 -19t-21.5 -49z" unicode="~"/>
<glyph glyph-name="uni00A0" horiz-adv-x="294" unicode=" "/>
<glyph glyph-name="exclamdown" horiz-adv-x="292" unicode="¡" d="M224 -165h-155l23 475h109zM213 382h-133v120h133v-120z"/>
<glyph glyph-name="cent" d="M367 0h-72v93q-96 13 -149 77t-53 166q0 98 55 161.5t147 77.5v92h72v-89q51 -1 112 -21l-6 -92q-50 24 -96 24q-67 0 -106 -42.5t-39 -110.5q0 -67 38 -112t104 -45q50 0 100 24l6 -93q-56 -19 -113 -20v-90z" unicode="¢"/>
<glyph glyph-name="sterling" d="M527 0h-447v95h77v204h-73v93h73v52q0 113 60.5 173t177.5 60q83 0 140 -20l-8 -98q-43 20 -106 20q-71 0 -99 -37.5t-28 -104.5v-45h163v-93h-163v-204h233v-95z" unicode="£"/>
<glyph glyph-name="currency" d="M180 284q15 -33 46 -54t68 -21q52 0 88 36.5t36 87.5t-36.5 87.5t-87.5 36.5q-52 0 -87.5 -36t-35.5 -88q0 -27 9 -49zM111 86l-64 63l65 66q-36 59 -36 118q0 63 36 119l-65 66l63 63l66 -66q56 36 118 36q61 0 120 -35l64 64l64 -63l-65 -65q36 -58 36 -120 q0 -63 -36 -117l65 -66l-63 -64l-66 66q-55 -37 -118 -37q-60 0 -120 37z" unicode="¤"/>
<glyph glyph-name="yen" d="M219 124h-147v84h147v63h-147v84h104l-163 312h146l136 -291l138 291h142l-171 -312h110v-84h-154v-63h154v-84h-154v-124h-141v124z" unicode="¥"/>
<glyph glyph-name="brokenbar" horiz-adv-x="214" unicode="¦" d="M161 -216h-107v397h107v-397zM161 379h-107v396h107v-396z"/>
<glyph glyph-name="section" d="M267 226l92 -39q44 44 44 83q0 21 -14 36.5t-29 23t-43 17.5l-77 29q-51 -28 -51 -77q0 -25 20 -41t58 -32zM87 -98l6 94q74 -30 160 -30q43 0 78 16t35 53q0 23 -21 39t-58 32l-96 39q-115 45 -115 143q0 69 90 128q-68 36 -68 109q0 52 32.5 87.5t78 50t98.5 14.5 q78 0 165 -21l-6 -92q-73 23 -134 23q-39 0 -71 -14t-32 -48q0 -7 1.5 -13t5 -11.5t6.5 -9.5t9.5 -8.5t10.5 -7t13.5 -6.5t13.5 -6t15.5 -6t15.5 -6l78 -33q59 -25 88 -52t29 -81q0 -41 -20 -71t-58 -60q60 -42 60 -118q0 -79 -68 -119.5t-156 -40.5q-93 0 -186 26z" unicode="§"/>
<glyph glyph-name="dieresis" horiz-adv-x="263" unicode="¨" d="M89 595h-107v111h107v-111zM281 595h-107v111h107v-111z"/>
<glyph glyph-name="copyright" horiz-adv-x="776" unicode="©" d="M512 231l4 -64q-42 -16 -94 -16q-95 0 -152.5 48.5t-57.5 134.5q0 83 59.5 133t150.5 50q43 0 94 -14l-4 -64q-38 15 -78 15q-62 0 -98 -32.5t-36 -87.5q0 -56 35 -88t98 -32q37 0 79 17zM197 138q77 -82 191 -82q113 0 191.5 81.5t78.5 196.5q0 114 -78.5 195t-191.5 81 t-191 -81t-78 -195q0 -113 78 -196zM254 16q-94 40 -152 126t-58 192q0 142 101 242.5t243 100.5t243 -100.5t101 -242.5q0 -143 -101 -244t-243 -101q-71 0 -134 27z"/>
<glyph glyph-name="ordfeminine" horiz-adv-x="388" unicode="ª" d="M243 504h-13q-46 0 -79.5 -12.5t-33.5 -39.5q0 -36 53 -36q29 0 49.5 22t22.5 53zM336 369h-92l-2 50q-18 -25 -46 -40.5t-58 -15.5q-50 0 -81.5 21.5t-31.5 65.5q0 58 50 83.5t125 25.5q17 0 43 -2v8q0 53 -79 53q-51 0 -98 -25l-3 65q60 19 115 19q156 0 156 -118v-118 v-41q0 -11 2 -31z"/>
<glyph glyph-name="guillemotleft" horiz-adv-x="500" unicode="«" d="M267 55h-112l-133 202l133 200h112l-127 -200zM469 55h-113l-133 202l133 200h113l-127 -200z"/>
<glyph glyph-name="logicalnot" horiz-adv-x="600" unicode="¬" d="M455 312h-415v102h521v-315h-106v213z"/>
<glyph glyph-name="uni00AD" horiz-adv-x="333" unicode="­" d="M293 258h-252v104h252v-104z"/>
<glyph glyph-name="registered" horiz-adv-x="768" unicode="®" d="M325 463v-99h38q81 0 81 52q0 47 -81 47h-38zM325 162h-84v357h158q56 0 93.5 -23t37.5 -72q0 -35 -25.5 -59t-64.5 -30q26 -5 39.5 -16.5t22.5 -35.5l48 -121h-89l-38 100q-10 27 -22.5 36.5t-43.5 9.5h-32v-146zM192 139q80 -83 192 -83t191 82.5t79 195.5t-78.5 194.5 t-191.5 81.5t-191.5 -81t-78.5 -195q0 -112 78 -195zM250 16q-94 40 -152 126t-58 192q0 142 101 242.5t243 100.5t243 -100.5t101 -242.5q0 -143 -101 -244t-243 -101q-71 0 -134 27z"/>
<glyph glyph-name="macron" horiz-adv-x="263" unicode="¯" d="M284 616h-304v70h304v-70z"/>
<glyph glyph-name="degree" horiz-adv-x="400" unicode="°" d="M120 491q11 -23 32.5 -37t47.5 -14q35 0 61 24.5t26 59.5q0 38 -25 61.5t-62 23.5t-62 -23.5t-25 -61.5q0 -19 7 -33zM90 414q-46 46 -46 110q0 65 45.5 109t110.5 44t110.5 -44t45.5 -109t-45.5 -109t-110.5 -44t-110 43z"/>
<glyph glyph-name="plusminus" d="M555 -29h-521v101h521v-101zM242 275h-208v101h208v166h105v-166h208v-101h-208v-161h-105v161z" unicode="±"/>
<glyph glyph-name="twosuperior" horiz-adv-x="450" unicode="²" d="M372 371h-309v73l78 57q123 88 123 151q0 27 -20.5 41.5t-55.5 14.5q-54 0 -111 -24l-3 72q79 24 130 24q68 0 116 -29t48 -91q0 -50 -33.5 -91.5t-95.5 -87.5l-55 -41h188v-69z"/>
<glyph glyph-name="threesuperior" horiz-adv-x="450" unicode="³" d="M63 380l3 67q49 -17 110 -17q42 0 69.5 15.5t27.5 46.5q0 57 -103 57h-52v61h43q107 0 107 55q0 26 -26.5 37.5t-63.5 11.5q-54 0 -102 -17l-3 66q54 17 120 17q43 0 79.5 -8t66 -33.5t29.5 -65.5q0 -72 -78 -92q37 -7 61 -30.5t24 -58.5q0 -47 -29.5 -77t-69 -40.5 t-88.5 -10.5q-72 0 -125 16z"/>
<glyph glyph-name="acute" horiz-adv-x="263" unicode="´" d="M167 583h-99l72 136h138z"/>
<glyph glyph-name="mu" d="M199 -216h-137v718h138v-297q0 -55 16.5 -86.5t67.5 -31.5q100 0 100 135v280h137v-390q0 -71 5 -112h-130l-3 87q-20 -42 -55.5 -67.5t-74.5 -25.5q-40 0 -64 24v-234z" unicode="µ"/>
<glyph glyph-name="paragraph" horiz-adv-x="583" unicode="¶" d="M331 -108h-95v430q-84 0 -144.5 45.5t-60.5 127.5q0 178 226 178h278v-781h-95v708h-109v-708z"/>
<glyph glyph-name="periodcentered" horiz-adv-x="294" unicode="·" d="M214 250h-134v120h134v-120z"/>
<glyph glyph-name="cedilla" horiz-adv-x="263" unicode="¸" d="M19 -172l19 46q52 -18 82 -18q19 0 33 7.5t14 20.5t-12 21t-27 8q-23 0 -41 -7l-20 25l47 69h56l-35 -51q11 4 36 4q33 0 53 -17t20 -49q0 -38 -31.5 -58.5t-88.5 -20.5q-56 0 -105 20z"/>
<glyph glyph-name="onesuperior" horiz-adv-x="450" unicode="¹" d="M309 371h-99v306l-92 -63l-35 68l141 92h85v-403z"/>
<glyph glyph-name="ordmasculine" horiz-adv-x="396" unicode="º" d="M141 457q19 -29 55 -29q70 0 70 94q0 37 -16 63.5t-54 26.5q-36 0 -53 -27t-17 -63q0 -42 15 -65zM68 405q-46 42 -46 117q0 73 48 114t126 41q82 0 128 -39.5t46 -115.5q0 -75 -46.5 -117t-127.5 -42t-128 42z"/>
<glyph glyph-name="guillemotright" horiz-adv-x="500" unicode="»" d="M144 55h-112l127 201l-127 201h112l133 -201zM346 55h-113l127 201l-127 201h113l133 -201z"/>
<glyph glyph-name="onequarter" horiz-adv-x="920" unicode="¼" d="M691 329l-141 -178h141v178zM259 266h-99v309l-85 -61l-35 65l134 88h85v-401zM255 -24h-84l423 715h85zM689 84h-200v79l193 238h104v-248h63v-69h-63v-84h-97v84z"/>
<glyph glyph-name="onehalf" horiz-adv-x="961" unicode="½" d="M259 266h-99v309l-85 -61l-35 65l134 88h85v-401zM255 -24h-84l423 715h85zM877 0h-312v73l77 62q4 3 28.5 20t36.5 27t30 27t26.5 33t8.5 32q0 30 -24.5 45.5t-59.5 15.5q-51 0 -109 -27l-3 74q72 25 132 25q68 0 116.5 -30.5t48.5 -91.5q0 -34 -26.5 -70.5t-52.5 -56.5 t-65 -47l-48 -42h196v-69z"/>
<glyph glyph-name="threequarters" horiz-adv-x="1019" unicode="¾" d="M790 329l-141 -178h141v178zM65 280l4 69q46 -17 111 -17q39 0 69 14t30 45q0 29 -32 42t-71 13h-54v62h46q39 0 72 13t33 42q0 47 -94 47q-51 0 -100 -17l-3 67q62 17 122 17q31 0 59 -4.5t56 -15.5t44.5 -32.5t16.5 -51.5q0 -37 -23 -62t-63 -34q41 -6 67.5 -29 t26.5 -60q0 -45 -30 -73.5t-69.5 -39t-88.5 -10.5q-75 0 -129 15zM354 -24h-84l423 715h85zM788 84h-200v79l193 238h104v-248h63v-69h-63v-84h-97v84z"/>
<glyph glyph-name="questiondown" horiz-adv-x="452" unicode="¿" d="M417 -42l6 -104q-96 -29 -171 -29q-89 0 -154 41.5t-65 124.5q0 41 17.5 75t42.5 57.5t50.5 47t43 55.5t17.5 70v14h117v-13q0 -48 -15 -85t-36.5 -59t-42.5 -41.5t-36 -44.5t-15 -56q0 -40 31 -60t74 -20q63 0 136 27zM329 382h-133v120h133v-120z"/>
<glyph glyph-name="Agrave" horiz-adv-x="699" unicode="À" d="M411 724h-98l-112 136h138zM347 573l-113 -305h223zM144 0h-146l254 667h194l255 -667h-154l-59 167h-284z"/>
<glyph glyph-name="Aacute" horiz-adv-x="699" unicode="Á" d="M394 724h-99l72 136h138zM347 573l-113 -305h223zM144 0h-146l254 667h194l255 -667h-154l-59 167h-284z"/>
<glyph glyph-name="Acircumflex" horiz-adv-x="699" unicode="Â" d="M278 724h-93l103 136h117l103 -136h-94l-68 86zM347 573l-113 -305h223zM144 0h-146l254 667h194l255 -667h-154l-59 167h-284z"/>
<glyph glyph-name="Atilde" horiz-adv-x="699" unicode="Ã" d="M243 730h-64q3 47 28.5 83t71.5 36q29 0 75 -19.5t62 -19.5q34 0 40 41h65q-2 -46 -30.5 -82t-72.5 -36q-29 0 -71 19t-61 19q-17 0 -30 -13t-13 -28zM347 573l-113 -305h223zM144 0h-146l254 667h194l255 -667h-154l-59 167h-284z"/>
<glyph glyph-name="Adieresis" horiz-adv-x="699" unicode="Ä" d="M499 736h-107v111h107v-111zM307 736h-107v111h107v-111zM347 573l-113 -305h223zM144 0h-146l254 667h194l255 -667h-154l-59 167h-284z"/>
<glyph glyph-name="Aring" horiz-adv-x="699" unicode="Å" d="M275 720q-30 30 -30 72t29.5 70.5t71.5 28.5t71.5 -28.5t29.5 -70.5q0 -41 -30 -70.5t-71 -29.5q-40 0 -71 28zM292 792q0 -23 16 -38.5t38 -15.5q23 0 38.5 15.5t15.5 38.5q0 22 -15.5 37.5t-38.5 15.5t-38.5 -15.5t-15.5 -37.5zM347 573l-113 -305h223zM144 0h-146 l254 667h194l255 -667h-154l-59 167h-284z"/>
<glyph glyph-name="AE" horiz-adv-x="950" unicode="Æ" d="M479 582l-189 -314h189v314zM138 0h-149l404 667h507v-102h-276v-176h261v-100h-261v-187h285v-102h-430v167h-242z"/>
<glyph glyph-name="Ccedilla" horiz-adv-x="603" unicode="Ç" d="M253 -172l19 46q52 -18 82 -18q19 0 33 7.5t14 20.5t-12 21t-27 8q-23 0 -41 -7l-20 25l42 62q-140 16 -221.5 104.5t-81.5 235.5q0 153 104.5 248.5t260.5 95.5q85 0 167 -24l-6 -111q-65 27 -138 27q-105 0 -169 -65.5t-64 -170.5q0 -108 61 -172t169 -64q80 0 143 28 l6 -108q-71 -28 -169 -28h-9l-27 -40q11 4 36 4q33 0 53 -17t20 -49q0 -38 -31.5 -58.5t-88.5 -20.5q-56 0 -105 20z"/>
<glyph glyph-name="Egrave" horiz-adv-x="558" unicode="È" d="M360 724h-98l-112 136h138zM517 0h-444v667h435v-102h-290v-175h277v-101h-277v-187h299v-102z"/>
<glyph glyph-name="Eacute" horiz-adv-x="558" unicode="É" d="M319 724h-99l72 136h138zM517 0h-444v667h435v-102h-290v-175h277v-101h-277v-187h299v-102z"/>
<glyph glyph-name="Ecircumflex" horiz-adv-x="558" unicode="Ê" d="M221 724h-93l103 136h117l103 -136h-94l-68 86zM517 0h-444v667h435v-102h-290v-175h277v-101h-277v-187h299v-102z"/>
<glyph glyph-name="Edieresis" horiz-adv-x="558" unicode="Ë" d="M441 736h-107v111h107v-111zM249 736h-107v111h107v-111zM517 0h-444v667h435v-102h-290v-175h277v-101h-277v-187h299v-102z"/>
<glyph glyph-name="Igrave" horiz-adv-x="293" unicode="Ì" d="M208 724h-98l-112 136h138zM221 0h-148v667h148v-667z"/>
<glyph glyph-name="Iacute" horiz-adv-x="293" unicode="Í" d="M185 724h-99l72 136h138zM221 0h-148v667h148v-667z"/>
<glyph glyph-name="Icircumflex" horiz-adv-x="293" unicode="Î" d="M78 724h-93l103 136h117l103 -136h-94l-68 86zM221 0h-148v667h148v-667z"/>
<glyph glyph-name="Idieresis" horiz-adv-x="293" unicode="Ï" d="M296 736h-107v111h107v-111zM104 736h-107v111h107v-111zM221 0h-148v667h148v-667z"/>
<glyph glyph-name="Eth" horiz-adv-x="700" unicode="Ð" d="M297 0h-224v293h-76v84h76v290h247q165 0 252.5 -81t87.5 -243q0 -167 -97.5 -255t-265.5 -88zM221 293v-191h55q113 0 171 62.5t58 178.5q0 103 -52 162.5t-155 59.5h-77v-188h142v-84h-142z"/>
<glyph glyph-name="Ntilde" horiz-adv-x="739" unicode="Ñ" d="M273 730h-64q3 47 28.5 83t71.5 36q29 0 75 -19.5t62 -19.5q34 0 40 41h65q-2 -46 -30.5 -82t-72.5 -36q-29 0 -71 19t-61 19q-17 0 -30 -13t-13 -28zM204 0h-131v667h216l247 -546v546h131v-667h-217l-246 545v-545z"/>
<glyph glyph-name="Ograve" horiz-adv-x="735" unicode="Ò" d="M428 724h-98l-112 136h138zM232 172q48 -80 135 -80q47 0 82 21.5t54 58t28 76.5t9 85t-9 85t-28 76.5t-54 58t-82 21.5t-82 -22t-53.5 -58.5t-27.5 -76.5t-9 -84q0 -97 37 -161zM225 13q-90 37 -137.5 119.5t-47.5 200.5q0 156 86.5 250t240.5 94q157 0 242.5 -92.5 t85.5 -251.5q0 -157 -86.5 -250.5t-241.5 -93.5q-81 0 -142 24z"/>
<glyph glyph-name="Oacute" horiz-adv-x="735" unicode="Ó" d="M406 724h-99l72 136h138zM232 172q48 -80 135 -80q47 0 82 21.5t54 58t28 76.5t9 85t-9 85t-28 76.5t-54 58t-82 21.5t-82 -22t-53.5 -58.5t-27.5 -76.5t-9 -84q0 -97 37 -161zM225 13q-90 37 -137.5 119.5t-47.5 200.5q0 156 86.5 250t240.5 94q157 0 242.5 -92.5 t85.5 -251.5q0 -157 -86.5 -250.5t-241.5 -93.5q-81 0 -142 24z"/>
<glyph glyph-name="Ocircumflex" horiz-adv-x="735" unicode="Ô" d="M299 724h-93l103 136h117l103 -136h-94l-68 86zM232 172q48 -80 135 -80q47 0 82 21.5t54 58t28 76.5t9 85t-9 85t-28 76.5t-54 58t-82 21.5t-82 -22t-53.5 -58.5t-27.5 -76.5t-9 -84q0 -97 37 -161zM225 13q-90 37 -137.5 119.5t-47.5 200.5q0 156 86.5 250t240.5 94 q157 0 242.5 -92.5t85.5 -251.5q0 -157 -86.5 -250.5t-241.5 -93.5q-81 0 -142 24z"/>
<glyph glyph-name="Otilde" horiz-adv-x="735" unicode="Õ" d="M261 730h-64q3 47 28.5 83t71.5 36q29 0 75 -19.5t62 -19.5q34 0 40 41h65q-2 -46 -30.5 -82t-72.5 -36q-29 0 -71 19t-61 19q-17 0 -30 -13t-13 -28zM232 172q48 -80 135 -80q47 0 82 21.5t54 58t28 76.5t9 85t-9 85t-28 76.5t-54 58t-82 21.5t-82 -22t-53.5 -58.5 t-27.5 -76.5t-9 -84q0 -97 37 -161zM225 13q-90 37 -137.5 119.5t-47.5 200.5q0 156 86.5 250t240.5 94q157 0 242.5 -92.5t85.5 -251.5q0 -157 -86.5 -250.5t-241.5 -93.5q-81 0 -142 24z"/>
<glyph glyph-name="Odieresis" horiz-adv-x="735" unicode="Ö" d="M517 736h-107v111h107v-111zM325 736h-107v111h107v-111zM232 172q48 -80 135 -80q47 0 82 21.5t54 58t28 76.5t9 85t-9 85t-28 76.5t-54 58t-82 21.5t-82 -22t-53.5 -58.5t-27.5 -76.5t-9 -84q0 -97 37 -161zM225 13q-90 37 -137.5 119.5t-47.5 200.5q0 156 86.5 250 t240.5 94q157 0 242.5 -92.5t85.5 -251.5q0 -157 -86.5 -250.5t-241.5 -93.5q-81 0 -142 24z"/>
<glyph glyph-name="multiply" d="M295 185l-179 -178l-71 72l178 178l-178 177l71 73l178 -179l179 178l71 -72l-178 -177l178 -178l-71 -72z" unicode="×"/>
<glyph glyph-name="Oslash" horiz-adv-x="735" unicode="Ø" d="M517 446l-268 -297q44 -57 120 -57q47 0 82 21.5t54 58t28 76.5t9 85q0 64 -25 113zM221 224l268 296q-46 54 -120 54q-47 0 -82 -22t-54 -58.5t-28 -77t-9 -83.5q0 -62 25 -109zM81 -25l-53 49l76 83q-62 85 -62 226q0 156 86.5 250t240.5 94q132 0 212 -65l73 79 l54 -49l-75 -81q64 -88 64 -228q0 -157 -86.5 -250.5t-241.5 -93.5q-132 0 -213 66z"/>
<glyph glyph-name="Ugrave" horiz-adv-x="696" unicode="Ù" d="M421 724h-98l-112 136h138zM214 667v-417q0 -68 33 -110.5t100 -42.5q68 0 102 42t34 110v418h148v-416q0 -126 -79.5 -194t-205.5 -68q-127 0 -203.5 65.5t-76.5 190.5v422h148z"/>
<glyph glyph-name="Uacute" horiz-adv-x="696" unicode="Ú" d="M375 724h-99l72 136h138zM214 667v-417q0 -68 33 -110.5t100 -42.5q68 0 102 42t34 110v418h148v-416q0 -126 -79.5 -194t-205.5 -68q-127 0 -203.5 65.5t-76.5 190.5v422h148z"/>
<glyph glyph-name="Ucircumflex" horiz-adv-x="696" unicode="Û" d="M278 724h-93l103 136h117l103 -136h-94l-68 86zM214 667v-417q0 -68 33 -110.5t100 -42.5q68 0 102 42t34 110v418h148v-416q0 -126 -79.5 -194t-205.5 -68q-127 0 -203.5 65.5t-76.5 190.5v422h148z"/>
<glyph glyph-name="Udieresis" horiz-adv-x="696" unicode="Ü" d="M498 736h-107v111h107v-111zM306 736h-107v111h107v-111zM214 667v-417q0 -68 33 -110.5t100 -42.5q68 0 102 42t34 110v418h148v-416q0 -126 -79.5 -194t-205.5 -68q-127 0 -203.5 65.5t-76.5 190.5v422h148z"/>
<glyph glyph-name="Yacute" horiz-adv-x="629" unicode="Ý" d="M355 724h-99l72 136h138zM387 0h-148v249l-246 418h162l164 -308l162 308h156l-250 -418v-249z"/>
<glyph glyph-name="Thorn" horiz-adv-x="603" unicode="Þ" d="M217 448v-221h52q35 0 60 3.5t50 14.5t38 34.5t13 59.5q0 56 -36.5 82.5t-95.5 26.5h-81zM218 0h-145v667h145v-119h136q99 0 162 -55t63 -153q0 -102 -64 -157.5t-165 -55.5h-132v-127z"/>
<glyph glyph-name="germandbls" horiz-adv-x="613" unicode="ß" d="M201 0h-138v477q0 113 67 183.5t195 70.5q99 0 161 -53.5t62 -156.5q0 -33 -5 -59q-68 -3 -99 -16.5t-31 -55.5q0 -23 17.5 -43t42.5 -37t50.5 -37t43 -51.5t17.5 -71.5q0 -80 -56 -120.5t-134 -40.5q-60 0 -121 17l6 94q42 -20 87 -20q37 0 59.5 18t22.5 52 q0 26 -16.5 47t-40 37t-47 34.5t-40 48t-16.5 69.5q0 54 35.5 86.5t90.5 38.5q3 15 3 36q0 43 -24.5 68.5t-71.5 25.5q-65 0 -92.5 -47.5t-27.5 -116.5v-477z"/>
<glyph glyph-name="agrave" horiz-adv-x="548" unicode="à" d="M340 583h-98l-112 136h138zM495 0h-130l-3 74q-54 -85 -164 -85q-72 0 -121 41t-49 113q0 169 269 169q22 0 60 -2v17q0 98 -119 98q-76 0 -147 -38l-6 92q82 33 173 33q232 0 232 -195v-199q0 -74 5 -118zM357 239h-28q-169 0 -169 -90q0 -36 20.5 -55t53.5 -19 q60 0 91.5 41.5t31.5 101.5v21z"/>
<glyph glyph-name="aacute" horiz-adv-x="548" unicode="á" d="M304 583h-99l72 136h138zM495 0h-130l-3 74q-54 -85 -164 -85q-72 0 -121 41t-49 113q0 169 269 169q22 0 60 -2v17q0 98 -119 98q-76 0 -147 -38l-6 92q82 33 173 33q232 0 232 -195v-199q0 -74 5 -118zM357 239h-28q-169 0 -169 -90q0 -36 20.5 -55t53.5 -19 q60 0 91.5 41.5t31.5 101.5v21z"/>
<glyph glyph-name="acircumflex" horiz-adv-x="548" unicode="â" d="M209 583h-93l103 136h117l103 -136h-94l-68 86zM495 0h-130l-3 74q-54 -85 -164 -85q-72 0 -121 41t-49 113q0 169 269 169q22 0 60 -2v17q0 98 -119 98q-76 0 -147 -38l-6 92q82 33 173 33q232 0 232 -195v-199q0 -74 5 -118zM357 239h-28q-169 0 -169 -90 q0 -36 20.5 -55t53.5 -19q60 0 91.5 41.5t31.5 101.5v21z"/>
<glyph glyph-name="atilde" horiz-adv-x="548" unicode="ã" d="M174 589h-64q3 47 28.5 83t71.5 36q28 0 74 -19.5t63 -19.5q34 0 40 41h65q-2 -46 -30 -82t-73 -36q-29 0 -71 19t-61 19q-17 0 -30 -13t-13 -28zM495 0h-130l-3 74q-54 -85 -164 -85q-72 0 -121 41t-49 113q0 169 269 169q22 0 60 -2v17q0 98 -119 98q-76 0 -147 -38 l-6 92q82 33 173 33q232 0 232 -195v-199q0 -74 5 -118zM357 239h-28q-169 0 -169 -90q0 -36 20.5 -55t53.5 -19q60 0 91.5 41.5t31.5 101.5v21z"/>
<glyph glyph-name="adieresis" horiz-adv-x="548" unicode="ä" d="M234 595h-107v111h107v-111zM426 595h-107v111h107v-111zM495 0h-130l-3 74q-54 -85 -164 -85q-72 0 -121 41t-49 113q0 169 269 169q22 0 60 -2v17q0 98 -119 98q-76 0 -147 -38l-6 92q82 33 173 33q232 0 232 -195v-199q0 -74 5 -118zM357 239h-28q-169 0 -169 -90 q0 -36 20.5 -55t53.5 -19q60 0 91.5 41.5t31.5 101.5v21z"/>
<glyph glyph-name="aring" horiz-adv-x="548" unicode="å" d="M217 651q0 -23 16 -38.5t38 -15.5q23 0 38.5 15.5t15.5 38.5q0 22 -15.5 37.5t-38.5 15.5t-38.5 -15.5t-15.5 -37.5zM200 579q-30 30 -30 72t29.5 70.5t71.5 28.5t71.5 -28.5t29.5 -70.5q0 -41 -30 -70.5t-71 -29.5q-40 0 -71 28zM495 0h-130l-3 74q-54 -85 -164 -85 q-72 0 -121 41t-49 113q0 169 269 169q22 0 60 -2v17q0 98 -119 98q-76 0 -147 -38l-6 92q82 33 173 33q232 0 232 -195v-199q0 -74 5 -118zM357 239h-28q-169 0 -169 -90q0 -36 20.5 -55t53.5 -19q60 0 91.5 41.5t31.5 101.5v21z"/>
<glyph glyph-name="ae" horiz-adv-x="841" unicode="æ" d="M350 230h-22q-39 0 -65 -2.5t-53 -11t-40.5 -26t-13.5 -45.5q0 -34 22.5 -52.5t60.5 -18.5q55 0 83 36t28 94v26zM88 386l-6 94q88 32 171 32q128 0 170 -80q68 80 164 80q222 0 222 -258v-31h-335q2 -67 44 -104.5t121 -37.5q80 0 138 33l6 -96q-68 -29 -160 -29 q-158 0 -223 96q-61 -96 -195 -96q-78 0 -128 38t-50 110q0 163 259 163q45 0 64 -1v29q0 49 -30 73.5t-81 24.5q-84 0 -151 -40zM474 299h211q0 56 -22 93t-74 37q-53 0 -83 -38.5t-32 -91.5z"/>
<glyph glyph-name="ccedilla" horiz-adv-x="476" unicode="ç" d="M171 -172l19 46q52 -18 82 -18q19 0 33 7.5t14 20.5t-12 21t-27 8q-23 0 -41 -7l-20 25l40 62q-104 15 -164.5 83t-60.5 177q0 119 79 189t201 70q72 0 133 -18l-6 -98q-45 22 -99 22q-75 0 -117.5 -45.5t-42.5 -119.5q0 -73 42 -120t117 -47q55 0 102 20l5 -98 q-57 -19 -136 -19l-25 -40q11 4 36 4q33 0 53 -17t20 -49q0 -38 -31.5 -58.5t-88.5 -20.5q-56 0 -105 20z"/>
<glyph glyph-name="egrave" horiz-adv-x="535" unicode="è" d="M342 583h-98l-112 136h138zM504 221h-335q2 -66 44 -103t121 -37q80 0 138 33l6 -96q-68 -29 -160 -29q-138 0 -211 69t-73 195q0 113 69.5 186t179.5 73q221 0 221 -258v-33zM169 299h211q0 56 -22 93t-74 37q-53 0 -83 -38.5t-32 -91.5z"/>
<glyph glyph-name="eacute" horiz-adv-x="535" unicode="é" d="M311 583h-99l72 136h138zM504 221h-335q2 -66 44 -103t121 -37q80 0 138 33l6 -96q-68 -29 -160 -29q-138 0 -211 69t-73 195q0 113 69.5 186t179.5 73q221 0 221 -258v-33zM169 299h211q0 56 -22 93t-74 37q-53 0 -83 -38.5t-32 -91.5z"/>
<glyph glyph-name="ecircumflex" horiz-adv-x="535" unicode="ê" d="M208 583h-93l103 136h117l103 -136h-94l-68 86zM504 221h-335q2 -66 44 -103t121 -37q80 0 138 33l6 -96q-68 -29 -160 -29q-138 0 -211 69t-73 195q0 113 69.5 186t179.5 73q221 0 221 -258v-33zM169 299h211q0 56 -22 93t-74 37q-53 0 -83 -38.5t-32 -91.5z"/>
<glyph glyph-name="edieresis" horiz-adv-x="535" unicode="ë" d="M234 595h-107v111h107v-111zM426 595h-107v111h107v-111zM504 221h-335q2 -66 44 -103t121 -37q80 0 138 33l6 -96q-68 -29 -160 -29q-138 0 -211 69t-73 195q0 113 69.5 186t179.5 73q221 0 221 -258v-33zM169 299h211q0 56 -22 93t-74 37q-53 0 -83 -38.5t-32 -91.5z "/>
<glyph glyph-name="igrave" horiz-adv-x="263" unicode="ì" d="M195 583h-98l-112 136h138zM201 0h-138v502h138v-502z"/>
<glyph glyph-name="iacute" horiz-adv-x="263" unicode="í" d="M162 583h-99l72 136h138zM201 0h-138v502h138v-502z"/>
<glyph glyph-name="icircumflex" horiz-adv-x="263" unicode="î" d="M63 583h-93l103 136h117l103 -136h-94l-68 86zM201 0h-138v502h138v-502z"/>
<glyph glyph-name="idieresis" horiz-adv-x="263" unicode="ï" d="M89 595h-107v111h107v-111zM281 595h-107v111h107v-111zM201 0h-138v502h138v-502z"/>
<glyph glyph-name="eth" horiz-adv-x="593" unicode="ð" d="M207 134q31 -51 90 -51t87 47.5t28 118.5q0 66 -27 111.5t-88 45.5q-59 0 -87 -46.5t-28 -110.5q0 -68 25 -115zM184 530l-47 46l100 51q-42 25 -110 40l59 64q66 -11 149 -57l109 57l47 -46l-89 -46q158 -122 158 -361q0 -131 -70 -210t-195 -79q-124 0 -192.5 67.5 t-68.5 192.5q0 109 61 180t170 71q49 0 84.5 -17t69.5 -55q-30 102 -115 163z"/>
<glyph glyph-name="ntilde" horiz-adv-x="585" unicode="ñ" d="M189 589h-64q3 47 28.5 83t71.5 36q29 0 74.5 -19.5t62.5 -19.5q34 0 40 41h65q-2 -46 -30 -82t-73 -36q-29 0 -71 19t-61 19q-17 0 -30 -13t-13 -28zM201 0h-138v390q0 66 -5 112h130l2 -84q48 94 163 94q170 0 170 -187v-325h-138v293q0 26 -3 44.5t-11 37.5 t-25.5 28.5t-44.5 9.5q-54 0 -77 -39t-23 -97v-277z"/>
<glyph glyph-name="ograve" horiz-adv-x="593" unicode="ò" d="M360 583h-98l-112 136h138zM207 137q32 -54 90 -54q61 0 88 48.5t27 121.5q0 31 -5.5 58.5t-18 52.5t-36 39.5t-55.5 14.5q-60 0 -87.5 -49t-27.5 -116q0 -69 25 -116zM186 7q-74 29 -113 92t-39 154q0 121 72.5 190t190.5 69q123 0 193 -67.5t70 -191.5q0 -122 -70 -193 t-193 -71q-61 0 -111 18z"/>
<glyph glyph-name="oacute" horiz-adv-x="593" unicode="ó" d="M330 583h-99l72 136h138zM207 137q32 -54 90 -54q61 0 88 48.5t27 121.5q0 31 -5.5 58.5t-18 52.5t-36 39.5t-55.5 14.5q-60 0 -87.5 -49t-27.5 -116q0 -69 25 -116zM186 7q-74 29 -113 92t-39 154q0 121 72.5 190t190.5 69q123 0 193 -67.5t70 -191.5q0 -122 -70 -193 t-193 -71q-61 0 -111 18z"/>
<glyph glyph-name="ocircumflex" horiz-adv-x="593" unicode="ô" d="M228 583h-93l103 136h117l103 -136h-94l-68 86zM207 137q32 -54 90 -54q61 0 88 48.5t27 121.5q0 31 -5.5 58.5t-18 52.5t-36 39.5t-55.5 14.5q-60 0 -87.5 -49t-27.5 -116q0 -69 25 -116zM186 7q-74 29 -113 92t-39 154q0 121 72.5 190t190.5 69q123 0 193 -67.5 t70 -191.5q0 -122 -70 -193t-193 -71q-61 0 -111 18z"/>
<glyph glyph-name="otilde" horiz-adv-x="593" unicode="õ" d="M190 589h-64q3 47 28.5 83t71.5 36q28 0 74 -19.5t63 -19.5q34 0 40 41h65q-2 -46 -30 -82t-73 -36q-29 0 -71 19t-61 19q-17 0 -30 -13t-13 -28zM207 137q32 -54 90 -54q61 0 88 48.5t27 121.5q0 31 -5.5 58.5t-18 52.5t-36 39.5t-55.5 14.5q-60 0 -87.5 -49t-27.5 -116 q0 -69 25 -116zM186 7q-74 29 -113 92t-39 154q0 121 72.5 190t190.5 69q123 0 193 -67.5t70 -191.5q0 -122 -70 -193t-193 -71q-61 0 -111 18z"/>
<glyph glyph-name="odieresis" horiz-adv-x="593" unicode="ö" d="M254 595h-107v111h107v-111zM446 595h-107v111h107v-111zM207 137q32 -54 90 -54q61 0 88 48.5t27 121.5q0 31 -5.5 58.5t-18 52.5t-36 39.5t-55.5 14.5q-60 0 -87.5 -49t-27.5 -116q0 -69 25 -116zM186 7q-74 29 -113 92t-39 154q0 121 72.5 190t190.5 69 q123 0 193 -67.5t70 -191.5q0 -122 -70 -193t-193 -71q-61 0 -111 18z"/>
<glyph glyph-name="divide" d="M294 -5q-29 0 -49.5 21t-20.5 50t20.5 50t49.5 21t50 -21t21 -50t-21 -50t-50 -21zM555 205h-521v102h521v-102zM294 375q-29 0 -49.5 21t-20.5 50t20.5 50.5t49.5 21.5t50 -21.5t21 -50.5t-21 -50t-50 -21z" unicode="÷"/>
<glyph glyph-name="oslash" horiz-adv-x="593" unicode="ø" d="M71 -26l-46 39l63 68q-53 68 -53 172q0 121 72 190t191 69q100 0 165 -48l60 64l46 -40l-61 -64q52 -59 52 -171q0 -122 -70 -193t-192 -71q-99 0 -165 51zM190 170l191 210q-27 38 -83 38q-61 0 -90 -45.5t-29 -118.5q0 -55 11 -84zM404 334l-192 -209q27 -42 86 -42 q61 0 89.5 46.5t28.5 124.5q0 47 -12 80z"/>
<glyph glyph-name="ugrave" horiz-adv-x="582" unicode="ù" d="M359 583h-98l-112 136h138zM525 0h-130l-3 84q-49 -95 -162 -95q-169 0 -169 189v324h138v-293q0 -26 2.5 -44.5t10.5 -37.5t25.5 -28.5t44.5 -9.5q54 0 77 39.5t23 97.5v276h138v-389q0 -67 5 -113z"/>
<glyph glyph-name="uacute" horiz-adv-x="582" unicode="ú" d="M320 583h-99l72 136h138zM525 0h-130l-3 84q-49 -95 -162 -95q-169 0 -169 189v324h138v-293q0 -26 2.5 -44.5t10.5 -37.5t25.5 -28.5t44.5 -9.5q54 0 77 39.5t23 97.5v276h138v-389q0 -67 5 -113z"/>
<glyph glyph-name="ucircumflex" horiz-adv-x="582" unicode="û" d="M223 583h-93l103 136h117l103 -136h-94l-68 86zM525 0h-130l-3 84q-49 -95 -162 -95q-169 0 -169 189v324h138v-293q0 -26 2.5 -44.5t10.5 -37.5t25.5 -28.5t44.5 -9.5q54 0 77 39.5t23 97.5v276h138v-389q0 -67 5 -113z"/>
<glyph glyph-name="udieresis" horiz-adv-x="582" unicode="ü" d="M249 595h-107v111h107v-111zM441 595h-107v111h107v-111zM525 0h-130l-3 84q-49 -95 -162 -95q-169 0 -169 189v324h138v-293q0 -26 2.5 -44.5t10.5 -37.5t25.5 -28.5t44.5 -9.5q54 0 77 39.5t23 97.5v276h138v-389q0 -67 5 -113z"/>
<glyph glyph-name="yacute" horiz-adv-x="503" unicode="ý" d="M297 583h-99l72 136h138zM30 -215l6 95q27 -10 54 -10q62 0 86 71l13 41l-183 520h146l106 -383l105 383h136l-186 -559q-30 -86 -72 -128t-114 -42q-37 0 -97 12z"/>
<glyph glyph-name="thorn" horiz-adv-x="595" unicode="þ" d="M219 143q29 -57 86 -57q108 0 108 167q0 162 -107 162q-41 0 -66.5 -27.5t-34 -61t-8.5 -73.5q0 -65 22 -110zM201 -216h-138v937h138v-302q18 44 60 68.5t92 24.5q55 0 96.5 -21.5t65 -58.5t35 -82t11.5 -97q0 -72 -19.5 -129t-69 -96t-122.5 -39q-50 0 -90.5 24 t-58.5 68v-297z"/>
<glyph glyph-name="OE" horiz-adv-x="943" unicode="Œ" d="M474 103v460q-39 11 -107 11q-47 0 -82 -22t-54 -58.5t-28 -77t-9 -83.5q0 -59 15.5 -111t56 -91t101.5 -39q69 0 107 11zM902 0h-380q-22 0 -75 -5.5t-80 -5.5q-158 0 -242.5 92.5t-84.5 251.5q0 156 86.5 250t240.5 94q27 0 81 -5t74 -5h371v-102h-277v-176h263v-100 h-263v-187h286v-102z"/>
<glyph glyph-name="oe" horiz-adv-x="906" unicode="œ" d="M199 137q32 -54 90 -54q60 0 88 49t28 121q0 43 -9.5 77.5t-37 61t-69.5 26.5q-60 0 -87.5 -49t-27.5 -116q0 -69 25 -116zM874 221h-335q2 -66 44 -103t121 -37q80 0 138 33l6 -96q-68 -29 -160 -29q-150 0 -213 93q-63 -93 -192 -93q-117 0 -183 73t-66 191 q0 115 68.5 187t181.5 72q127 0 193 -94q65 94 175 94q115 0 168.5 -69.5t53.5 -190.5v-31zM539 299h211q0 56 -22 93t-74 37q-53 0 -83 -38.5t-32 -91.5z"/>
<glyph glyph-name="Scaron" horiz-adv-x="551" unicode="Š" d="M334 724h-117l-103 136h94l68 -86l68 86h93zM58 16l7 117q86 -38 168 -38q47 0 82 20.5t35 66.5q0 34 -26 56t-86 47l-54 23q-127 54 -127 171q0 54 24 95t63.5 62t81.5 31t86 10q101 0 157 -21l-5 -115q-68 29 -142 29q-47 0 -81.5 -18.5t-34.5 -61.5q0 -30 24.5 -49.5 t71.5 -38.5l44 -18q76 -30 117 -72t41 -116q0 -57 -23.5 -99t-63 -64.5t-83 -33t-90.5 -10.5q-99 0 -186 27z"/>
<glyph glyph-name="scaron" horiz-adv-x="446" unicode="š" d="M286 583h-117l-103 136h94l68 -86l68 86h93zM44 13l6 105q65 -34 138 -34q87 0 87 58q0 23 -24 39.5t-58.5 28.5t-69 27t-58.5 46.5t-24 76.5q0 53 33.5 89t78.5 50t95 14q71 0 138 -19l-6 -100q-60 24 -124 24q-82 0 -82 -51q0 -21 24 -35t58 -25t68 -26t58 -48t24 -81 q0 -57 -32.5 -95.5t-77.5 -53t-100 -14.5q-84 0 -152 24z"/>
<glyph glyph-name="Ydieresis" horiz-adv-x="629" unicode="Ÿ" d="M468 736h-107v111h107v-111zM276 736h-107v111h107v-111zM387 0h-148v249l-246 418h162l164 -308l162 308h156l-250 -418v-249z"/>
<glyph glyph-name="circumflex" horiz-adv-x="263" unicode="ˆ" d="M63 583h-93l103 136h117l103 -136h-94l-68 86z"/>
<glyph glyph-name="tilde" horiz-adv-x="263" unicode="˜" d="M25 589h-64q3 47 28.5 83t71.5 36q29 0 75 -19.5t62 -19.5q34 0 40 41h65q-2 -46 -30 -82t-73 -36q-29 0 -71 19t-61 19q-17 0 -30 -13t-13 -28z"/>
<glyph glyph-name="uni0394" horiz-adv-x="750" unicode="Δ" d="M371 575l-183 -477h371zM707 0h-664l266 689h121z"/>
<glyph glyph-name="uni03BC" d="M199 -216h-137v718h138v-297q0 -55 16.5 -86.5t67.5 -31.5q100 0 100 135v280h137v-390q0 -71 5 -112h-130l-3 87q-20 -42 -55.5 -67.5t-74.5 -25.5q-40 0 -64 24v-234z" unicode="μ"/>
<glyph glyph-name="pi" horiz-adv-x="650" unicode="π" d="M233 0h-103v390h-70v96h506v-96h-81v-249v-21q0 -40 34 -40q15 0 47 15v-81q-46 -24 -85 -24q-55 0 -77 30.5t-22 86.5v283h-149v-390z"/>
<glyph glyph-name="endash" horiz-adv-x="500" unicode="–" d="M500 265h-500v90h500v-90z"/>
<glyph glyph-name="emdash" horiz-adv-x="1000" unicode="—" d="M1000 265h-1000v90h1000v-90z"/>
<glyph glyph-name="quoteleft" horiz-adv-x="294" unicode="‘" d="M175 473h-130l94 248h95z"/>
<glyph glyph-name="quotesinglbase" horiz-adv-x="294" unicode="‚" d="M125 -128h-95l59 248h130z"/>
<glyph glyph-name="quotedblleft" horiz-adv-x="496" unicode="“" d="M175 473h-130l94 248h95zM377 473h-130l94 248h95z"/>
<glyph glyph-name="quotedblright" horiz-adv-x="496" unicode="”" d="M155 473h-95l59 248h130zM357 473h-95l58 248h131z"/>
<glyph glyph-name="dagger" d="M362 -128h-136v533h-176v112h176v204h136v-204h176v-112h-176v-533z" unicode="†"/>
<glyph glyph-name="daggerdbl" d="M362 -128h-136v204h-176v112h176v217h-176v112h176v204h136v-204h176v-112h-176v-217h176v-112h-176v-204z" unicode="‡"/>
<glyph glyph-name="ellipsis" horiz-adv-x="1000" unicode="…" d="M234 0h-134v120h134v-120zM568 0h-134v120h134v-120zM901 0h-134v120h134v-120z"/>
<glyph glyph-name="perthousand" horiz-adv-x="1400" unicode="‰" d="M187 377q15 -45 60 -45q24 0 39 11.5t21.5 34.5t8.5 43t2 50q0 31 -2 52t-9 43t-22 33t-38 11t-38 -11.5t-21.5 -33t-9 -43t-2.5 -51.5q0 -61 11 -94zM704 101q18 -45 61 -45q24 0 39 11.5t21.5 34.5t8.5 43t2 50q0 31 -2 52t-9 43t-22 33t-38 11t-38.5 -11.5t-22 -33 t-9 -43t-2.5 -51.5q0 -61 11 -94zM1092 101q15 -45 60 -45q24 0 39.5 12t22.5 34t9 43t2 50q0 64 -15 101.5t-58 37.5q-23 0 -37.5 -11t-21 -33.5t-8.5 -43t-2 -51.5q0 -64 9 -94zM164 282q-90 49 -90 189q0 88 41.5 147t131.5 59q47 0 81.5 -17t53.5 -47t28 -65.5t9 -76.5 t-9 -76.5t-28 -65.5t-53.5 -47t-81.5 -17q-49 0 -83 17zM337 -24h-85l424 715h84zM682 6q-90 49 -90 189q0 88 41.5 147t131.5 59q47 0 81.5 -17t53.5 -47t28 -65.5t9 -76.5t-9 -76.5t-28 -65.5t-53.5 -47t-81.5 -17q-49 0 -83 17zM1069 6q-88 50 -88 189q0 88 40.5 147 t130.5 59t132 -59t42 -147t-41.5 -147t-132.5 -59q-49 0 -83 17z"/>
<glyph glyph-name="guilsinglleft" horiz-adv-x="299" unicode="‹" d="M267 55h-112l-133 202l133 200h112l-127 -200z"/>
<glyph glyph-name="guilsinglright" horiz-adv-x="299" unicode="›" d="M145 55h-113l127 201l-127 201h113l132 -201z"/>
<glyph glyph-name="fraction" horiz-adv-x="173" unicode="⁄" d="M-85 -24h-81l424 715h81z"/>
<glyph glyph-name="Euro" d="M120 236h-89l15 61h66q-2 24 -2 37t2 35h-80l15 61h74q24 110 105.5 178.5t193.5 68.5q73 0 142 -25l-25 -102q-42 19 -94 19q-63 0 -107.5 -38.5t-63.5 -100.5h241l-15 -61h-241q-2 -24 -2 -36t2 -36h227l-15 -61h-198q18 -62 61.5 -99.5t107.5 -37.5q59 0 98 20l6 -109 q-44 -21 -124 -21q-118 0 -197 65.5t-103 181.5z" unicode="€"/>
<glyph glyph-name="trademark" horiz-adv-x="1007" unicode="™" d="M246 266h-103v326h-137v75h378v-75h-138v-326zM528 266h-91v401h154l110 -298l105 298h155v-401h-96v341l-123 -341h-90l-124 341v-341z"/>
<glyph glyph-name="partialdiff" horiz-adv-x="600" unicode="∂" d="M201 109q34 -48 89 -48q38 0 65.5 25t40.5 65.5t19 75.5t7 72q-58 62 -125 62q-60 0 -92.5 -44.5t-32.5 -106.5q0 -60 29 -101zM159 588l-57 65q78 67 169 67q58 0 103.5 -22t74 -57t47 -83t26 -96.5t7.5 -100.5q0 -65 -10.5 -124.5t-35.5 -119t-75 -95t-120 -35.5 q-97 0 -157 66.5t-60 164.5q0 93 58 155.5t150 62.5q75 0 145 -60v9q0 15 -2 41q-20 217 -144 217q-69 0 -119 -55z"/>
<glyph glyph-name="product" horiz-adv-x="750" unicode="∏" d="M184 -200h-104v1000h591v-1000h-104v898h-383v-898z"/>
<glyph glyph-name="summation" horiz-adv-x="750" unicode="∑" d="M690 -200h-622v92l279 416l-263 401v91h591v-100h-457l253 -392l-271 -405h490v-103z"/>
<glyph glyph-name="minus" d="M555 206h-521v101h521v-101z" unicode="−"/>
<glyph glyph-name="radical" horiz-adv-x="600" unicode="√" d="M367 -200h-94l-150 320l-51 -24l-39 78l144 65l129 -288l158 849h103z"/>
<glyph glyph-name="infinity" horiz-adv-x="872" unicode="∞" d="M192 194q26 -27 64 -27q20 0 38 7.5t36.5 26t26 27t26.5 32.5q-69 93 -127 93q-38 0 -63.5 -27.5t-25.5 -66.5t25 -65zM514 284q-14 -16 -24 -30q20 -27 34.5 -43.5t40 -32t52.5 -15.5q39 0 64 27.5t25 67.5q0 38 -25.5 65t-63.5 27q-45 0 -103 -66zM473 144 q-21 24 -35 45q-40 -54 -80.5 -83.5t-97.5 -29.5q-79 0 -129 52t-50 132q0 79 48 130.5t127 51.5q57 0 98 -31t81 -88q22 29 37 46t37 35.5t48 27t58 8.5q80 0 129 -50.5t49 -129.5t-48.5 -132.5t-127.5 -53.5q-77 0 -144 70z"/>
<glyph glyph-name="approxequal" horiz-adv-x="600" unicode="≈" d="M98 68h-69q4 67 40 119.5t99 52.5q45 0 136 -33t132 -33q54 0 67 67h69q-4 -67 -39.5 -119.5t-98.5 -52.5q-45 0 -137.5 34t-131.5 34q-28 0 -46 -20t-21 -49zM98 272h-69q4 67 40 120t99 53q45 0 136 -33.5t132 -33.5q54 0 67 67h69q-4 -67 -39.5 -119t-98.5 -52 q-45 0 -137.5 33.5t-131.5 33.5q-28 0 -46 -20t-21 -49z"/>
<glyph glyph-name="notequal" d="M191 -53l-89 45l55 107h-123v101h174l57 112h-231v102h283l79 153l88 -45l-56 -108h127v-102h-178l-58 -112h236v-101h-287z" unicode="≠"/>
<glyph glyph-name="lessequal" d="M555 -39h-521v102h521v-102zM555 97l-521 179v104l521 171v-107l-380 -117l380 -124v-106z" unicode="≤"/>
<glyph glyph-name="greaterequal" d="M555 -39h-521v102h521v-102zM555 276l-521 -179v106l379 124l-379 117v107l521 -171v-104z" unicode="≥"/>
<glyph glyph-name="lozenge" horiz-adv-x="600" unicode="◊" d="M177 400l123 -294l123 294l-123 293zM348 0h-97l-180 400l181 400h96l182 -400z"/>
</font>
</defs>
</svg>
